# xmcd CD database file
#
# Track frame offsets:
#	150
#	13892
#	29910
#	47675
#	67400
#	98488
#	114458
#	135470
#	152783
#	180260
#	201148
#
# Disc length: 2922 seconds
#
# Revision: 0
# Processed by: cddbd v1.5.2PL0 Copyright (c) Steve Scherf et al.
# Submitted via: CDex 1.70beta2
#
DISCID=960b680b
DTITLE=Caravan - Luck and Pluck
DYEAR=2009
DGENRE=Blues
TTITLE0=Morning Song
TTITLE1=Beautiful Losers
TTITLE2=Music
TTITLE3=Live Your Life
TTITLE4=Seed
TTITLE5=Tripster Blues
TTITLE6=ほんのすこしだけ
TTITLE7=Freedom Kingdom
TTITLE8=Melody
TTITLE9=Luck and Pluck
TTITLE10=Lilac
EXTD=YEAR: 2009
EXTT0=
EXTT1=
EXTT2=
EXTT3=
EXTT4=
EXTT5=
EXTT6=
EXTT7=
EXTT8=
EXTT9=
EXTT10=
PLAYORDER=
